<?xml version="1.0" standalone="no"?>
<!DOCTYPE svg PUBLIC "-//W3C//DTD SVG 20010904//EN"
 "http://www.w3.org/TR/2001/REC-SVG-20010904/DTD/svg10.dtd">
<svg version="1.0" xmlns="http://www.w3.org/2000/svg"
 width="560.000000pt" height="314.000000pt" viewBox="0 0 560.000000 314.000000"
 preserveAspectRatio="xMidYMid meet">

<g transform="translate(0.000000,314.000000) scale(0.100000,-0.100000)"
fill="#ffffff" stroke="none">
<path d="M360 2976 c0 -6 59 -172 262 -741 82 -231 186 -521 230 -645 44 -124
127 -358 184 -520 58 -162 116 -324 129 -360 13 -36 60 -168 105 -295 45 -126
93 -261 107 -300 13 -38 26 -76 29 -83 3 -10 135 -12 636 -10 l633 3 18 60
c10 33 34 107 52 165 18 58 50 159 70 225 20 66 40 131 45 145 5 14 27 86 50
160 23 74 45 146 50 160 5 14 18 59 30 100 39 134 46 141 75 77 9 -18 13 -24
11 -15 -3 10 0 20 6 24 7 4 6 9 -3 15 -8 5 -9 9 -4 9 12 0 12 180 0 200 -6 9
-4 11 5 5 10 -6 12 -4 7 8 -3 10 -3 17 1 17 4 0 8 9 9 20 1 11 -2 18 -8 15 -5
-4 -9 -1 -9 5 0 7 6 10 13 8 6 -3 13 -21 14 -42 0 -20 8 -47 16 -59 14 -21 13
-24 -1 -35 -14 -9 -14 -11 -1 -6 9 3 19 -4 26 -18 77 -166 103 -227 103 -240
0 -28 43 76 55 132 1 5 55 174 141 440 25 74 49 151 55 170 6 19 16 51 24 70
8 19 24 69 35 110 12 41 27 87 32 102 6 15 9 28 7 30 -1 2 3 14 10 26 7 13 24
61 37 105 14 45 29 94 33 108 9 26 -9 73 -98 264 -11 22 -28 60 -38 84 l-20
44 -42 -134 c-23 -74 -48 -147 -54 -164 -7 -16 -12 -34 -12 -40 0 -5 -6 -23
-12 -40 -11 -28 -54 -168 -59 -190 -2 -14 -44 -143 -58 -180 -6 -16 -11 -32
-11 -35 -1 -3 -10 -34 -22 -70 -11 -36 -26 -86 -34 -112 -7 -26 -17 -45 -21
-42 -4 3 -5 -1 -3 -8 3 -8 -4 -40 -15 -73 -11 -33 -23 -71 -26 -84 -3 -14 -7
-28 -10 -33 -3 -4 -7 -17 -9 -28 -2 -11 -8 -28 -14 -37 -8 -15 -9 -13 -7 10 1
15 6 30 9 34 10 9 8 35 -2 29 -4 -3 -6 6 -3 19 2 14 11 25 21 25 14 0 14 2 1
10 -12 8 -12 10 5 11 l20 0 -20 9 c-11 5 -16 9 -12 9 4 1 3 11 -4 23 -10 18
-9 20 4 15 11 -4 14 -2 10 9 -7 19 17 175 26 169 12 -7 -1 59 -13 70 -6 5 -10
9 -7 8 2 -1 11 5 20 14 10 10 12 18 5 20 -13 4 -8 47 9 81 8 17 8 25 -1 34 -9
9 -12 9 -12 -3 0 -8 -7 -24 -16 -35 -15 -18 -15 -18 -5 2 6 11 12 33 15 47 2
14 10 34 16 44 11 17 11 17 6 0 -4 -12 -2 -16 7 -12 6 4 4 0 -6 -8 -18 -15
-18 -16 1 -26 18 -9 19 -8 15 12 -3 16 -2 18 5 8 6 -8 12 -9 16 -3 3 5 -1 13
-10 16 -9 3 -14 13 -11 20 3 8 1 16 -5 18 -8 3 -7 17 2 50 8 26 16 45 19 43 4
-2 7 7 7 18 3 46 22 107 34 107 5 0 7 6 4 13 -2 7 5 39 16 72 11 33 22 69 24
80 2 11 8 31 14 45 6 14 23 66 38 115 14 50 32 108 39 130 l13 40 -171 5
c-166 6 -168 6 -49 8 l122 2 -15 24 c-11 17 -13 26 -5 31 6 4 8 15 5 26 -4 11
-2 19 4 19 6 0 11 7 11 15 0 13 -60 15 -506 13 l-506 -3 -109 -345 c-60 -190
-123 -391 -141 -448 -17 -56 -35 -99 -40 -94 -4 4 -28 66 -52 137 -25 72 -72
209 -106 305 -34 96 -83 236 -109 310 l-47 135 -667 3 c-367 1 -667 0 -667 -2z
m2043 -141 c-3 -9 -8 -14 -10 -11 -3 3 -2 9 2 15 9 16 15 13 8 -4z m-773 -80
c0 -5 -5 -3 -10 5 -5 8 -10 20 -10 25 0 6 5 3 10 -5 5 -8 10 -19 10 -25z
m-1036 -11 c3 -8 2 -12 -4 -9 -6 3 -10 10 -10 16 0 14 7 11 14 -7z m1050 -30
c3 -8 2 -12 -4 -9 -6 3 -10 10 -10 16 0 14 7 11 14 -7z m719 -9 c-3 -9 -8 -14
-10 -11 -3 3 -2 9 2 15 9 16 15 13 8 -4z m-1743 -40 c0 -5 -5 -3 -10 5 -5 8
-10 20 -10 25 0 6 5 3 10 -5 5 -8 10 -19 10 -25z m1100 -170 c0 -5 -5 -3 -10
5 -5 8 -10 20 -10 25 0 6 5 3 10 -5 5 -8 10 -19 10 -25z m561 -42 c-12 -20
-14 -14 -5 12 4 9 9 14 11 11 3 -2 0 -13 -6 -23z m-1551 -98 c0 -5 -5 -3 -10
5 -5 8 -10 20 -10 25 0 6 5 3 10 -5 5 -8 10 -19 10 -25z m1040 0 c0 -5 -5 -3
-10 5 -5 8 -10 20 -10 25 0 6 5 3 10 -5 5 -8 10 -19 10 -25z m471 -32 c-12
-20 -14 -14 -5 12 4 9 9 14 11 11 3 -2 0 -13 -6 -23z m-1483 -48 c-3 -3 -9 2
-12 12 -6 14 -5 15 5 6 7 -7 10 -15 7 -18z m22 -60 c0 -5 -5 -3 -10 5 -5 8
-10 20 -10 25 0 6 5 3 10 -5 5 -8 10 -19 10 -25z m1423 -20 c-3 -9 -8 -14 -10
-11 -3 3 -2 9 2 15 9 16 15 13 8 -4z m-1399 -41 c3 -8 2 -12 -4 -9 -6 3 -10
10 -10 16 0 14 7 11 14 -7z m1056 -59 c0 -5 -5 -3 -10 5 -5 8 -10 20 -10 25 0
6 5 3 10 -5 5 -8 10 -19 10 -25z m44 -121 c3 -8 2 -12 -4 -9 -6 3 -10 10 -10
16 0 14 7 11 14 -7z m1241 -15 c-4 -12 -8 -28 -9 -35 -1 -7 -5 -16 -8 -20 -8
-7 -3 35 7 59 10 24 18 21 10 -4z m-1024 -16 c-12 -20 -14 -14 -5 12 4 9 9 14
11 11 3 -2 0 -13 -6 -23z m-1223 -58 c-3 -3 -9 2 -12 12 -6 14 -5 15 5 6 7 -7
10 -15 7 -18z m2216 -20 c-9 -14 -18 -25 -20 -25 -2 0 2 11 8 25 6 14 15 25
20 25 5 0 1 -11 -8 -25z m-1177 -17 c-3 -8 -6 -5 -6 6 -1 11 2 17 5 13 3 -3 4
-12 1 -19z m143 -35 c-11 -17 -11 -17 -6 0 3 10 6 24 7 30 0 9 2 9 5 0 3 -7 0
-20 -6 -30z m1023 -3 c3 -11 1 -18 -3 -15 -5 3 -16 -22 -26 -55 -9 -33 -19
-59 -21 -56 -5 4 35 146 41 146 2 0 6 -9 9 -20z m-2164 -40 c11 -24 11 -24 -3
-6 -9 11 -16 24 -16 30 0 12 5 7 19 -24z m952 -73 c-10 -9 -11 -8 -5 6 3 10 9
15 12 12 3 -3 0 -11 -7 -18z m-923 -12 c-3 -3 -9 2 -12 12 -6 14 -5 15 5 6 7
-7 10 -15 7 -18z m1045 -90 c-3 -9 -8 -14 -10 -11 -3 3 -2 9 2 15 9 16 15 13
8 -4z m1008 -22 c-12 -20 -14 -14 -5 12 4 9 9 14 11 11 3 -2 0 -13 -6 -23z
m-1170 -10 c-12 -20 -14 -14 -5 12 4 9 9 14 11 11 3 -2 0 -13 -6 -23z m-837 1
c3 -8 2 -12 -4 -9 -6 3 -10 10 -10 16 0 14 7 11 14 -7z m1977 -85 c-5 -13 -10
-19 -10 -12 -1 15 10 45 15 40 3 -2 0 -15 -5 -28z m-1031 -46 c-11 -17 -11
-17 -6 0 3 10 6 24 7 30 0 9 2 9 5 0 3 -7 0 -20 -6 -30z m-159 -26 c-10 -9
-11 -8 -5 6 3 10 9 15 12 12 3 -3 0 -11 -7 -18z m1160 -10 c-10 -9 -11 -8 -5
6 3 10 9 15 12 12 3 -3 0 -11 -7 -18z m-1881 -22 c0 -5 -5 -3 -10 5 -5 8 -10
20 -10 25 0 6 5 3 10 -5 5 -8 10 -19 10 -25z m1870 -30 c-6 -15 -13 -25 -16
-23 -2 3 1 17 7 32 16 34 23 27 9 -9z m-1842 -50 c-3 -3 -9 2 -12 12 -6 14 -5
15 5 6 7 -7 10 -15 7 -18z m815 10 c-3 -9 -8 -14 -10 -11 -3 3 -2 9 2 15 9 16
15 13 8 -4z m998 -42 c-12 -20 -14 -14 -5 12 4 9 9 14 11 11 3 -2 0 -13 -6
-23z m-1030 -50 c-12 -20 -14 -14 -5 12 4 9 9 14 11 11 3 -2 0 -13 -6 -23z
m1009 -20 c-11 -17 -11 -17 -6 0 3 10 6 24 7 30 0 9 2 9 5 0 3 -7 0 -20 -6
-30z m-1169 -10 c-12 -20 -14 -14 -5 12 4 9 9 14 11 11 3 -2 0 -13 -6 -23z
m-577 -9 c3 -8 2 -12 -4 -9 -6 3 -10 10 -10 16 0 14 7 11 14 -7z m557 -61
c-12 -20 -14 -14 -5 12 4 9 9 14 11 11 3 -2 0 -13 -6 -23z m-537 1 c3 -8 2
-12 -4 -9 -6 3 -10 10 -10 16 0 14 7 11 14 -7z m1697 -7 c-10 -9 -11 -8 -5 6
3 10 9 15 12 12 3 -3 0 -11 -7 -18z m-1180 -61 c-14 -36 -22 -33 -9 5 6 16 12
28 14 26 3 -2 0 -16 -5 -31z m150 7 c-12 -20 -14 -14 -5 12 4 9 9 14 11 11 3
-2 0 -13 -6 -23z m990 -80 c-12 -20 -14 -14 -5 12 4 9 9 14 11 11 3 -2 0 -13
-6 -23z m-1030 -50 c-12 -20 -14 -14 -5 12 4 9 9 14 11 11 3 -2 0 -13 -6 -23z
m-553 -18 c-3 -3 -9 2 -12 12 -6 14 -5 15 5 6 7 -7 10 -15 7 -18z m1553 -31
c-5 -16 -10 -21 -10 -12 -1 18 10 51 15 45 2 -1 -1 -16 -5 -33z m-20 -61 c-12
-20 -14 -14 -5 12 4 9 9 14 11 11 3 -2 0 -13 -6 -23z m-1170 -6 c-10 -9 -11
-8 -5 6 3 10 9 15 12 12 3 -3 0 -11 -7 -18z m-321 -22 c0 -5 -5 -3 -10 5 -5 8
-10 20 -10 25 0 6 5 3 10 -5 5 -8 10 -19 10 -25z m1471 -36 c-5 -13 -10 -19
-10 -12 -1 15 10 45 15 40 3 -2 0 -15 -5 -28z m-1443 -50 c-3 -8 -7 -3 -11 10
-4 17 -3 21 5 13 5 -5 8 -16 6 -23z m253 -26 c-12 -20 -14 -14 -5 12 4 9 9 14
11 11 3 -2 0 -13 -6 -23z m-231 -28 c0 -5 -5 -3 -10 5 -5 8 -10 20 -10 25 0 6
5 3 10 -5 5 -8 10 -19 10 -25z m24 -61 c3 -8 2 -12 -4 -9 -6 3 -10 10 -10 16
0 14 7 11 14 -7z m317 -41 c-12 -20 -14 -14 -5 12 4 9 9 14 11 11 3 -2 0 -13
-6 -23z m-297 -19 c3 -8 2 -12 -4 -9 -6 3 -10 10 -10 16 0 14 7 11 14 -7z
m137 -11 c-12 -20 -14 -14 -5 12 4 9 9 14 11 11 3 -2 0 -13 -6 -23z m1160 -6
c-10 -9 -11 -8 -5 6 3 10 9 15 12 12 3 -3 0 -11 -7 -18z m-20 -70 c-10 -9 -11
-8 -5 6 3 10 9 15 12 12 3 -3 0 -11 -7 -18z m-1018 -22 c-3 -9 -8 -14 -10 -11
-3 3 -2 9 2 15 9 16 15 13 8 -4z m-32 -92 c-12 -20 -14 -14 -5 12 4 9 9 14 11
11 3 -2 0 -13 -6 -23z m-148 0 c-3 -7 -6 -13 -8 -13 -2 0 -5 6 -8 13 -3 8 1
14 8 14 7 0 11 -6 8 -14z m1158 -20 c-12 -20 -14 -14 -5 12 4 9 9 14 11 11 3
-2 0 -13 -6 -23z m-1055 -128 c-5 -14 52 -15 503 -13 280 2 507 0 504 -4 -5
-9 -1007 -11 -1016 -2 -6 6 2 34 10 34 3 0 3 -7 -1 -15z"/>
<path d="M4004 2823 c-3 -10 -11 -31 -17 -48 -7 -16 -12 -32 -12 -35 0 -3 -5
-18 -12 -35 -13 -34 -123 -372 -128 -395 -6 -23 -52 -162 -63 -190 -6 -14 -20
-59 -32 -100 -12 -41 -27 -88 -33 -105 -7 -16 -12 -32 -12 -35 0 -3 -5 -18
-12 -35 -11 -30 -56 -175 -58 -185 0 -3 -5 -18 -11 -35 -6 -16 -33 -97 -59
-180 -26 -82 -52 -163 -59 -180 -6 -16 -11 -32 -11 -35 -2 -10 -48 -156 -67
-210 -35 -98 -46 -139 -40 -144 3 -4 233 -6 512 -6 l507 0 92 273 c50 149 93
277 94 282 12 42 53 170 69 215 10 30 26 78 35 105 8 28 24 75 35 105 10 30
26 78 35 105 9 28 40 124 70 215 30 91 56 172 59 180 2 8 18 56 35 105 17 50
32 97 34 105 2 8 22 71 44 139 23 68 41 128 41 133 0 4 -232 8 -515 8 -482 0
-516 -1 -521 -17z"/>
<path d="M3250 2290 c-9 -6 -10 -10 -3 -10 6 0 15 5 18 10 8 12 4 12 -15 0z"/>
<path d="M3204 2159 c-3 -6 -1 -16 4 -21 8 -8 11 -5 9 11 -1 24 -3 25 -13 10z"/>
<path d="M3135 1539 c-4 -6 -5 -12 -2 -15 2 -3 7 2 10 11 7 17 1 20 -8 4z"/>
<path d="M3092 1335 c1 -10 9 -20 16 -21 7 -1 8 0 2 3 -5 2 -8 9 -5 13 3 5 0
12 -6 15 -7 5 -10 1 -7 -10z"/>
</g>
</svg>
